<svg xmlns="http://www.w3.org/2000/svg" viewBox="0 0 191.93 236.36"><defs><style>.cls-1{fill:#c5c5c5;}.cls-2{fill:#6a6a6a;}.cls-3{fill:#0b0b0b;}.cls-4{fill:#fff;}.cls-5{fill:#a4a4a4;}.cls-6{fill:#afafaf;}.cls-7{fill:#5d5d5d;}.cls-8{fill:#ababab;}.cls-9{fill:#848484;}.cls-10{fill:#cdcdcd;}</style></defs><g id="Camada_2" data-name="Camada 2"><g id="Camada_1-2" data-name="Camada 1"><polygon class="cls-1" points="178.63 113.48 144.1 140.14 139.34 113.48 108.21 137.52 103.92 113.48 68.21 141.05 68.21 228.57 103.63 228.57 108.84 228.57 142.92 228.57 144.27 228.57 183.55 228.57 183.55 141.05 178.63 113.48"/><polygon class="cls-2" points="104.34 204.35 99.23 204.35 91.84 122.8 68.21 141.06 68.21 228.57 103.63 228.57 104.34 228.57 104.34 204.35"/><rect class="cls-1" x="3.86" y="204.34" width="74.07" height="28.52"/><rect class="cls-1" x="14.67" y="65.12" width="52.46" height="21.05"/><polygon class="cls-1" points="62.11 86.16 40.58 86.16 37.35 86.16 19.68 86.16 8.97 204.35 37.35 204.35 40.58 204.35 72.83 204.35 62.11 86.16"/><path class="cls-3" d="M178.63,113.48l4.92,27.57v87.52H68.21V141.05l35.71-27.57,4.29,24,31.13-24,4.76,26.66Zm0-7.59a8.9,8.9,0,0,0-5.43,1.82L150,125.63l-2.39-13.36a7.8,7.8,0,0,0-5.37-5.91,9.25,9.25,0,0,0-2.89-.47,8.9,8.9,0,0,0-5.43,1.82L114.1,123l-1.92-10.73a7.82,7.82,0,0,0-5.37-5.91,9.25,9.25,0,0,0-2.89-.47,8.93,8.93,0,0,0-5.44,1.82L62.77,135.28a7.33,7.33,0,0,0-2.94,5.77v87.52c0,4.18,3.75,7.58,8.38,7.58H183.55c4.63,0,8.38-3.4,8.38-7.58V141.05a7.07,7.07,0,0,0-.11-1.21l-4.93-27.57a7.82,7.82,0,0,0-5.37-5.91,9.25,9.25,0,0,0-2.89-.47"/><rect class="cls-4" x="140.28" y="162.68" width="23.27" height="41.66"/><polygon class="cls-5" points="62.11 86.16 67.13 86.16 67.13 65.12 40.25 65.12 40.25 232.86 77.93 232.86 77.93 204.35 72.83 204.35 62.11 86.16"/><path class="cls-3" d="M77.93,236.36H3.86A3.7,3.7,0,0,1,0,232.86V204.34a3.69,3.69,0,0,1,3.86-3.49H77.93a3.7,3.7,0,0,1,3.87,3.49v28.52a3.71,3.71,0,0,1-3.87,3.5m-70.2-7H74.07V207.85H7.73Z"/><path class="cls-3" d="M67.13,89.66H14.67a3.69,3.69,0,0,1-3.86-3.5v-21a3.69,3.69,0,0,1,3.86-3.5H67.13A3.69,3.69,0,0,1,71,65.12v21a3.69,3.69,0,0,1-3.86,3.5m-48.6-7H63.26v-14H18.53Z"/><path class="cls-3" d="M72.83,207.85H9a4.07,4.07,0,0,1-2.84-1.13,3.35,3.35,0,0,1-1-2.66L15.83,85.88a3.74,3.74,0,0,1,3.85-3.22H62.11A3.73,3.73,0,0,1,66,85.88L76.68,204.06a3.31,3.31,0,0,1-1,2.66,4,4,0,0,1-2.84,1.13m-59.67-7H68.64L58.55,89.66H23.24Z"/><rect class="cls-4" x="99.39" y="162.68" width="23.27" height="41.66"/><polygon class="cls-6" points="140.28 204.35 163.55 162.68 140.28 162.68 140.28 204.35"/><polygon class="cls-6" points="99.39 204.35 122.66 162.68 99.39 162.68 99.39 204.35"/><path class="cls-3" d="M163.55,207.85H140.28a3.7,3.7,0,0,1-3.86-3.51V162.68a3.7,3.7,0,0,1,3.86-3.5h23.27a3.7,3.7,0,0,1,3.86,3.5v41.66a3.7,3.7,0,0,1-3.86,3.51m-19.4-7h15.53V166.18H144.15Z"/><path class="cls-3" d="M122.66,207.85H99.39a3.7,3.7,0,0,1-3.86-3.51V162.68a3.7,3.7,0,0,1,3.86-3.5h23.27a3.7,3.7,0,0,1,3.86,3.5v41.66a3.7,3.7,0,0,1-3.86,3.51m-19.4-7h15.53V166.18H103.26Z"/><path class="cls-6" d="M156.29,2.35c-15.62,0-28.72,10.57-32.1,24.69a30.14,30.14,0,0,0-16-4.59,30.7,30.7,0,0,0-6.26.66C101.76,10.34,91,0,77.75,0A24.34,24.34,0,0,0,57,11.4a25.7,25.7,0,0,0-13.81-4C29.32,7.4,18,18.33,18,31.77S29.32,56.16,43.22,56.16A25.36,25.36,0,0,0,65.37,43.41a24.65,24.65,0,0,0,12.38,3.34c.41,0,.81,0,1.22-.06a27.41,27.41,0,0,0-.39,4.37c0,15.78,13.28,28.61,29.59,28.61A29.54,29.54,0,0,0,136.4,59.62a33.54,33.54,0,0,0,19.89,6.48c18.17,0,33-14.3,33-31.88s-14.79-31.87-33-31.87m0,55.16a24.29,24.29,0,0,1-19.47-9.61c-1.71-2.49-7.92-2.62-8,2.06,0,.36,0,.73,0,1.1,0,11.06-9.27,20-20.71,20s-20.71-9-20.71-20a19.51,19.51,0,0,1,1.69-7.93C90,38.7,88,36.22,83.66,37a15.64,15.64,0,0,1-5.91,1.15,15.44,15.44,0,0,1-12-5.67c-1.62-2.52-6.31-.94-6.4,1.83a16.16,16.16,0,0,1-16.1,13.25c-9,0-16.34-7.07-16.34-15.79A16.08,16.08,0,0,1,43.22,16a16.56,16.56,0,0,1,12.66,5.81c2,3,6.79,1.11,6.89-1.4a15.35,15.35,0,0,1,30.27,3,14.23,14.23,0,0,1-1.17,5.69c-.75,5.1,2.29,5.71,5.7,4.82a21.1,21.1,0,0,1,27.51,5.64c2.79,3.55,8.38,1.37,7.22-3.43-.05-.62-.09-1.24-.09-1.87,0-12.86,10.78-23.28,24.08-23.28s24.08,10.42,24.08,23.28-10.78,23.29-24.08,23.29"/><path class="cls-7" d="M53.07,30.79a3.41,3.41,0,0,0-2.25-.62H45.49V25.34a2.78,2.78,0,0,0-.68-2.05,2.69,2.69,0,0,0-3.54,0,2.73,2.73,0,0,0-.68,2v4.83H35.25a3.38,3.38,0,0,0-2.24.62,2,2,0,0,0-.75,1.61A2,2,0,0,0,33,34a3.4,3.4,0,0,0,2.22.62h5.34v4.83a2.73,2.73,0,0,0,.68,2,2.41,2.41,0,0,0,1.78.67,2.37,2.37,0,0,0,1.76-.69,2.79,2.79,0,0,0,.68-2V34.61h5.33A3.41,3.41,0,0,0,53.08,34a2.11,2.11,0,0,0,0-3.2"/><path class="cls-8" d="M97.9,47.54a3.53,3.53,0,0,1-1.36-2.9A4,4,0,0,1,98,41.9a4.65,4.65,0,0,1,3-1.23,4.25,4.25,0,0,1,3.17,1.23,3.52,3.52,0,0,1,1.14,2.83,3.68,3.68,0,0,1-1.18,2.83,4.41,4.41,0,0,1-3.1,1.13,4.55,4.55,0,0,1-3.09-1.15m19.54,12a4.79,4.79,0,0,1-3,1.25,4.33,4.33,0,0,1-3.25-1.25,3.67,3.67,0,0,1,0-5.59,4.52,4.52,0,0,1,3.12-1.2,4.43,4.43,0,0,1,3.11,1.14,3.67,3.67,0,0,1,1.39,2.93,3.85,3.85,0,0,1-1.33,2.72"/><path class="cls-8" d="M97.43,60h0a2.51,2.51,0,0,1-.13-3.79l17.27-15.65a3.18,3.18,0,0,1,4.18.12,2.51,2.51,0,0,1,.13,3.79L101.61,60.11A3.19,3.19,0,0,1,97.43,60"/><path class="cls-9" d="M86.46,22H81.55L84,18.09a1.79,1.79,0,0,0-.76-2.57,2.23,2.23,0,0,0-2.84.69L78,20.07l-2.46-3.86a2.22,2.22,0,0,0-2.84-.69,1.8,1.8,0,0,0-.76,2.57L74.35,22H69.44a1.89,1.89,0,1,0,0,3.76h4.91l-2.46,3.86a1.8,1.8,0,0,0,.76,2.57,2.2,2.2,0,0,0,2.84-.69L78,27.6l2.45,3.85a2.2,2.2,0,0,0,2.84.69A1.79,1.79,0,0,0,84,29.57l-2.45-3.86h4.91a1.89,1.89,0,1,0,0-3.76"/><path class="cls-10" d="M168.5,31.62H145a2.53,2.53,0,0,1-2.53-2.52V27.59A2.53,2.53,0,0,1,145,25.07H168.5A2.53,2.53,0,0,1,171,27.59V29.1a2.53,2.53,0,0,1-2.53,2.52"/><path class="cls-10" d="M168.5,43.12H145a2.54,2.54,0,0,1-2.53-2.53V39.08A2.53,2.53,0,0,1,145,36.56H168.5A2.53,2.53,0,0,1,171,39.08v1.51a2.54,2.54,0,0,1-2.53,2.53"/></g></g></svg>