<svg xmlns="http://www.w3.org/2000/svg" viewBox="0 0 191.93 236.86"><defs><style>.cls-1{fill:#1d1d1b;}.cls-2,.cls-4{fill:#fff;}.cls-3{fill:#f4f4f4;}.cls-4{stroke:#fff;stroke-miterlimit:10;}</style></defs><g id="Camada_2" data-name="Camada 2"><g id="Camada_1-2" data-name="Camada 1"><rect class="cls-1" x="3.86" y="204.84" width="74.07" height="28.52"/><path class="cls-2" d="M178.63,114l4.92,27.57v87.52H68.21V141.55L103.92,114l4.29,24,31.13-24,4.76,26.66Zm0-7.59a8.9,8.9,0,0,0-5.43,1.82L150,126.13l-2.39-13.36a7.8,7.8,0,0,0-5.37-5.91,9.25,9.25,0,0,0-2.89-.47,8.9,8.9,0,0,0-5.43,1.82L114.1,123.5l-1.92-10.73a7.82,7.82,0,0,0-5.37-5.91,9.25,9.25,0,0,0-2.89-.47,8.93,8.93,0,0,0-5.44,1.82L62.77,135.78a7.33,7.33,0,0,0-2.94,5.77v87.52c0,4.18,3.75,7.58,8.38,7.58H183.55c4.63,0,8.38-3.4,8.38-7.58V141.55a7.07,7.07,0,0,0-.11-1.21l-4.93-27.57a7.82,7.82,0,0,0-5.37-5.91,9.25,9.25,0,0,0-2.89-.47"/><rect x="140.28" y="163.18" width="23.27" height="41.66"/><polygon class="cls-1" points="62.11 86.66 67.13 86.66 67.13 65.62 40.25 65.62 40.25 233.36 77.93 233.36 77.93 204.85 72.83 204.85 62.11 86.66"/><path class="cls-3" d="M77.93,236.86H3.86A3.7,3.7,0,0,1,0,233.36V204.84a3.69,3.69,0,0,1,3.86-3.49H77.93a3.7,3.7,0,0,1,3.87,3.49v28.52a3.71,3.71,0,0,1-3.87,3.5m-70.2-7H74.07V208.35H7.73Z"/><path class="cls-2" d="M67.13,90.16H14.67a3.69,3.69,0,0,1-3.86-3.5v-21a3.69,3.69,0,0,1,3.86-3.5H67.13A3.69,3.69,0,0,1,71,65.62v21a3.69,3.69,0,0,1-3.86,3.5m-48.6-7H63.26v-14H18.53Z"/><path class="cls-3" d="M72.83,208.35H9a4.07,4.07,0,0,1-2.84-1.13,3.35,3.35,0,0,1-1-2.66L15.83,86.38a3.74,3.74,0,0,1,3.85-3.22H62.11A3.73,3.73,0,0,1,66,86.38L76.68,204.56a3.31,3.31,0,0,1-1,2.66,4,4,0,0,1-2.84,1.13m-59.67-7H68.64L58.55,90.16H23.24Z"/><rect x="99.39" y="163.18" width="23.27" height="41.66"/><polygon class="cls-1" points="140.28 204.85 163.55 163.18 140.28 163.18 140.28 204.85"/><polygon class="cls-1" points="99.39 204.85 122.66 163.18 99.39 163.18 99.39 204.85"/><path class="cls-2" d="M163.55,208.35H140.28a3.7,3.7,0,0,1-3.86-3.51V163.18a3.7,3.7,0,0,1,3.86-3.5h23.27a3.7,3.7,0,0,1,3.86,3.5v41.66a3.7,3.7,0,0,1-3.86,3.51m-19.4-7h15.53V166.68H144.15Z"/><path class="cls-2" d="M122.66,208.35H99.39a3.7,3.7,0,0,1-3.86-3.51V163.18a3.7,3.7,0,0,1,3.86-3.5h23.27a3.7,3.7,0,0,1,3.86,3.5v41.66a3.7,3.7,0,0,1-3.86,3.51m-19.4-7h15.53V166.68H103.26Z"/><path class="cls-4" d="M156.29,2.85c-15.62,0-28.72,10.57-32.1,24.69a30.14,30.14,0,0,0-16-4.59,30.7,30.7,0,0,0-6.26.66C101.76,10.84,91,.5,77.75.5A24.34,24.34,0,0,0,57,11.9a25.7,25.7,0,0,0-13.81-4C29.32,7.9,18,18.83,18,32.27S29.32,56.66,43.22,56.66A25.36,25.36,0,0,0,65.37,43.91a24.65,24.65,0,0,0,12.38,3.34c.41,0,.81,0,1.22-.06a27.41,27.41,0,0,0-.39,4.37c0,15.78,13.28,28.61,29.59,28.61A29.54,29.54,0,0,0,136.4,60.12a33.54,33.54,0,0,0,19.89,6.48c18.17,0,33-14.3,33-31.88s-14.79-31.87-33-31.87m0,55.16a24.29,24.29,0,0,1-19.47-9.61c-1.71-2.49-7.92-2.62-8,2.06,0,.36,0,.73,0,1.1,0,11.06-9.27,20-20.71,20s-20.71-9-20.71-20a19.51,19.51,0,0,1,1.69-7.93C90,39.2,88,36.72,83.66,37.51a15.64,15.64,0,0,1-5.91,1.15,15.44,15.44,0,0,1-12-5.67c-1.62-2.52-6.31-.94-6.4,1.83a16.16,16.16,0,0,1-16.1,13.25c-9,0-16.34-7.07-16.34-15.79a16.08,16.08,0,0,1,16.34-15.8,16.56,16.56,0,0,1,12.66,5.81c2,3,6.79,1.11,6.89-1.4a15.35,15.35,0,0,1,30.27,3,14.23,14.23,0,0,1-1.17,5.69c-.75,5.1,2.29,5.71,5.7,4.82A21.1,21.1,0,0,1,125.08,40c2.79,3.55,8.38,1.37,7.22-3.43-.05-.62-.09-1.24-.09-1.87,0-12.86,10.78-23.28,24.08-23.28s24.08,10.42,24.08,23.28S169.59,58,156.29,58"/><path class="cls-4" d="M53.07,31.29a3.41,3.41,0,0,0-2.25-.62H45.49V25.84a2.78,2.78,0,0,0-.68-2.05,2.69,2.69,0,0,0-3.54,0,2.73,2.73,0,0,0-.68,2v4.83H35.25a3.38,3.38,0,0,0-2.24.62,2,2,0,0,0-.75,1.61A2,2,0,0,0,33,34.49a3.4,3.4,0,0,0,2.22.62h5.34v4.83a2.73,2.73,0,0,0,.68,2,2.41,2.41,0,0,0,1.78.67A2.37,2.37,0,0,0,44.81,42a2.79,2.79,0,0,0,.68-2V35.11h5.33a3.41,3.41,0,0,0,2.26-.62,2.11,2.11,0,0,0,0-3.2"/><path class="cls-2" d="M97.9,48a3.53,3.53,0,0,1-1.36-2.9A4,4,0,0,1,98,42.4a4.65,4.65,0,0,1,3-1.23,4.25,4.25,0,0,1,3.17,1.23,3.52,3.52,0,0,1,1.14,2.83,3.68,3.68,0,0,1-1.18,2.83,4.41,4.41,0,0,1-3.1,1.13A4.55,4.55,0,0,1,97.9,48m19.54,12a4.79,4.79,0,0,1-3,1.25A4.33,4.33,0,0,1,111.15,60a3.67,3.67,0,0,1,0-5.59,4.52,4.52,0,0,1,3.12-1.2,4.43,4.43,0,0,1,3.11,1.14,3.67,3.67,0,0,1,1.39,2.93A3.85,3.85,0,0,1,117.44,60"/><path class="cls-2" d="M97.43,60.5h0a2.51,2.51,0,0,1-.13-3.79l17.27-15.65a3.18,3.18,0,0,1,4.18.12,2.51,2.51,0,0,1,.13,3.79L101.61,60.61a3.19,3.19,0,0,1-4.18-.11"/><path class="cls-4" d="M86.46,22.45H81.55L84,18.59A1.79,1.79,0,0,0,83.24,16a2.23,2.23,0,0,0-2.84.69L78,20.57l-2.46-3.86A2.22,2.22,0,0,0,72.65,16a1.8,1.8,0,0,0-.76,2.57l2.46,3.86H69.44a1.89,1.89,0,1,0,0,3.76h4.91l-2.46,3.86a1.8,1.8,0,0,0,.76,2.57A2.2,2.2,0,0,0,75.49,32L78,28.1,80.4,32a2.2,2.2,0,0,0,2.84.69A1.79,1.79,0,0,0,84,30.07l-2.45-3.86h4.91a1.89,1.89,0,1,0,0-3.76"/><path class="cls-4" d="M168.5,32.12H145a2.53,2.53,0,0,1-2.53-2.52V28.09A2.53,2.53,0,0,1,145,25.57H168.5A2.53,2.53,0,0,1,171,28.09V29.6a2.53,2.53,0,0,1-2.53,2.52"/><path class="cls-2" d="M169.68,43.62H143.84a2.79,2.79,0,0,1-2.78-2.78V39.18a2.79,2.79,0,0,1,2.78-2.78h25.84a2.79,2.79,0,0,1,2.78,2.78v1.66a2.79,2.79,0,0,1-2.78,2.78"/></g></g></svg>